<svg xmlns="http://www.w3.org/2000/svg" xmlns:xlink="http://www.w3.org/1999/xlink" width="21" height="21" x="0" y="0" enable-background="new 0 0 21 21" overflow="visible" version="1.1" viewBox="0 0 21 21" xml:space="preserve"><path d="M12,14h1V9h-2v1h1V14z M15,5C14.998,5,5,5,5,5C4.449,5,4.002,5.449,4,6v10c0,0.553,0.447,1,1,1h10c0.553,0,1-0.447,1-1V6	C15.998,5.449,15.551,5,15,5z M15,16H5V7h10V16z M10,13v-0.75c0-0.414-0.336-0.75-0.75-0.75c0.414,0,0.75-0.336,0.75-0.75V10	c0-0.553-0.447-1-1-1H7v1h2v1H8v1h1v1H7v1h2C9.553,14,10,13.553,10,13z"/><rect width="21" height="21" fill="#4387FD" opacity="0"/></svg>